<?xml version="1.0" encoding="UTF-8"?><svg id="Layer_2" xmlns="http://www.w3.org/2000/svg" xmlns:xlink="http://www.w3.org/1999/xlink" viewBox="0 0 704.5 175.39"><defs><style>.cls-1{fill:#ff3e00;}.cls-2{fill:url(#linear-gradient);}.cls-3{fill:#fefefe;}.cls-4{fill:#fe3f02;}</style><linearGradient id="linear-gradient" x1="-591.44" y1="487.29" x2="-587.24" y2="487.27" gradientTransform="translate(16955.93 13862.23) scale(28.67 -28.33)" gradientUnits="userSpaceOnUse"><stop offset="0" stop-color="#f2b83f"/><stop offset="1" stop-color="#ff3e00"/></linearGradient></defs><g id="Layer_1-2"><path class="cls-4" d="M483.94,125.33c0,4.01-3.25,7.27-7.27,7.27s-7.27-3.25-7.27-7.27,3.25-7.27,7.27-7.27,7.27,3.25,7.27,7.27ZM482.34,125.34c0-3.13-2.54-5.66-5.66-5.66s-5.66,2.54-5.66,5.66,2.54,5.66,5.66,5.66,5.66-2.54,5.66-5.66Z"/><path class="cls-4" d="M689.03,87.65l-173.94.05c-9.06,0-15.96-7.3-15.95-16.18l.04-49.52c0-8.5,6.84-15.79,15.6-15.79l173.85-.03c8.83,0,15.88,7.16,15.87,15.81l-.02,50.06c0,8.2-6.72,15.59-15.45,15.6ZM547.4,65.25c4.1-3.92,4-15.4.69-19.15-2.21-2.5-5.54-3.56-8.88-3.65l-10.5-.28c-1.41-.04-2.75-.76-3.35-1.57-.89-1.19-1.14-5.87.26-7.35,3.21-3.4,17.46-.93,22.53-.59l.02-7.62c-8.56-.92-19.89-1.93-27.73,1.17-4.48,1.76-6.46,5.63-6.23,10.34.15,3.07-.03,6.11,1.85,8.73,2.01,2.82,5.27,4.48,8.78,4.58l10.66.32c1.57.05,2.87.7,3.66,1.7.23.29,3.16,8.36-2.76,9.85-6.31,1.58-14.4-.33-21.07-1.06-.24,2.69-.14,5.06-.09,7.85,8.97,1.02,25.33,3.29,32.17-3.26ZM689.12,60.47c-6.51,1.37-12.17,2.61-18.23,1.41-2.3-.46-5.47-1.77-5.62-4.42-.41-7.21-.26-14.23-.06-21.46s19.6-3.63,23.82-2.78c.11-2.73.16-5.02-.01-7.55-8.46-1.6-18.71-2.68-26.76.47-4.15,1.62-7.49,5.23-7.48,9.86l.04,22.53c0,4.12,3.25,7.44,6.85,8.91,7.95,3.24,18.97,2.55,27.56.82.17-2.58.37-5.1-.09-7.79ZM597.47,24.7l-11.65-.16-9.51,17.71-9.47-17.41-11.67.05,15.8,26.49.05,17.62,10.41-.08.1-17.84,15.94-26.37ZM646.02,68.85l-.06-44.3-9.26-.02-.1,30.71-21.81-30.75-10.42.14v44.27c3.13.22,6.04.17,9.19.03l.26-30.6,21.49,30.59c3.68.12,7.05.25,10.7-.07Z"/><path class="cls-3" d="M646.02,68.85c-3.65.32-7.02.19-10.7.07l-21.49-30.59-.26,30.6c-3.15.14-6.07.19-9.19-.03V24.62s10.42-.14,10.42-.14l21.81,30.75.1-30.71,9.26.02.06,44.3Z"/><path class="cls-3" d="M547.4,65.25c-6.84,6.56-23.2,4.28-32.17,3.26-.04-2.79-.15-5.16.09-7.85,6.67.73,14.76,2.64,21.07,1.06,5.91-1.48,2.99-9.55,2.76-9.85-.79-.99-2.09-1.65-3.66-1.7l-10.66-.32c-3.51-.11-6.77-1.77-8.78-4.58-1.87-2.62-1.69-5.67-1.85-8.73-.23-4.71,1.75-8.57,6.23-10.34,7.84-3.09,19.17-2.09,27.73-1.17l-.02,7.62c-5.06-.34-19.32-2.81-22.53.59-1.4,1.48-1.14,6.16-.26,7.35.6.81,1.94,1.54,3.35,1.57l10.5.28c3.34.09,6.68,1.15,8.88,3.65,3.31,3.75,3.41,15.22-.69,19.15Z"/><path class="cls-3" d="M689.12,60.47c.46,2.69.26,5.21.09,7.79-8.59,1.73-19.61,2.42-27.56-.82-3.6-1.47-6.84-4.8-6.85-8.91l-.04-22.53c0-4.63,3.33-8.24,7.48-9.86,8.05-3.15,18.31-2.07,26.76-.47.17,2.53.12,4.82.01,7.55-4.22-.85-23.62-4.71-23.82,2.78s-.35,14.25.06,21.46c.15,2.64,3.32,3.96,5.62,4.42,6.06,1.2,11.72-.04,18.23-1.41Z"/><polygon class="cls-3" points="597.47 24.7 581.53 51.07 581.43 68.91 571.03 68.99 570.97 51.37 555.17 24.88 566.84 24.84 576.31 42.25 585.82 24.54 597.47 24.7"/><path class="cls-3" d="M482.34,125.34c0,3.13-2.54,5.66-5.66,5.66s-5.66-2.54-5.66-5.66,2.54-5.66,5.66-5.66,5.66,2.54,5.66,5.66ZM479.08,129.15c1.33-.94-.23-1.77-.24-2.66s1.32-1.74,1.04-2.65c-.21-.68-.43-1.68-1.4-1.96-1.48-.43-2.89-.33-4.43.03-.21,2.51-.61,4.93.47,7.42l1.59-3.12c1.3.92,1.6,2.42,2.96,2.94Z"/><path class="cls-4" d="M479.08,129.15c-1.36-.52-1.67-2.03-2.96-2.94l-1.59,3.12c-1.08-2.5-.69-4.92-.47-7.42,1.54-.36,2.95-.46,4.43-.03.98.28,1.19,1.28,1.4,1.96.28.92-1.04,1.72-1.04,2.65s1.57,1.72.24,2.66ZM478.01,123.57c-.47-.62-2.09-.48-2.35-.03-.58,1.03.59,1.32,1.28,1.47.54.12,1.75-.54,1.07-1.45Z"/><path class="cls-3" d="M478.01,123.57c.68.91-.53,1.57-1.07,1.45-.69-.15-1.85-.44-1.28-1.47.25-.46,1.88-.59,2.35.03Z"/><path class="cls-2" d="M24.19,62.12H2.59c-1.42,0-2.59-1.14-2.59-2.55v-.08c0-1.41,1.16-2.55,2.59-2.55h21.6c-.06.86-.09,1.71-.09,2.58s.03,1.73.09,2.59ZM25.84,48.51l-21.78-2.83c-1.35-.17-2.61.72-2.88,2.04,0,.02,0,.03-.02.05-.29,1.45.72,2.84,2.2,3.03l21.22,2.76c.29-1.71.71-3.4,1.24-5.05h.01ZM29.52,40.7l-21.76-5.76c-1.24-.33-2.55.29-3.06,1.47,0,.01-.01.03-.02.05-.61,1.44.19,3.07,1.71,3.47l20.63,5.46c.71-1.63,1.54-3.2,2.48-4.7h0ZM34.69,34.28c.09-.09.19-.18.29-.29l-21.47-8.79c-1.13-.46-2.44-.08-3.13.92,0,.02-.02.03-.03.05-.92,1.34-.36,3.18,1.15,3.8l19.83,8.11c1.02-1.34,2.14-2.61,3.36-3.82ZM41.86,28.77l-20.91-11.92c-1.01-.58-2.29-.41-3.12.4-.02.01-.03.03-.04.04-1.21,1.19-.94,3.19.53,4.03l18.81,10.74c1.48-1.23,3.06-2.32,4.71-3.29h.02ZM46.19,26.61c1.16-.48,2.35-.91,3.56-1.27l-20.02-15.17c-.88-.67-2.1-.71-3.03-.09-.02.02-.03.02-.05.03-1.47.97-1.52,3.09-.12,4.15l17.55,13.31c.68-.34,1.39-.66,2.09-.96h0ZM57.95,24.12L39.6,5.18c-.74-.76-1.87-.99-2.85-.61-.02,0-.03.01-.05.02-1.69.68-2.16,2.83-.9,4.14l15.66,16.19c2.11-.46,4.27-.72,6.47-.8h.01ZM60.25,23.81c2.12,0,3.4.04,5.45.39L49.48,2.42c-.61-.79-1.63-1.16-2.62-.94-.03,0-.05.01-.08.02-1.84.41-2.61,2.57-1.47,4.05l14.2,18.28c.24,0,.49,0,.74,0h0ZM120.44,56.94c-.05-1.3-.16-2.59-.29-3.87-.14-1.32-.33-2.62-.56-3.9-.24-1.34-.52-2.67-.85-3.97-.34-1.37-.74-2.73-1.17-4.06-.46-1.42-.98-2.81-1.55-4.17-.61-1.46-1.27-2.89-1.99-4.29-.77-1.5-1.61-2.97-2.5-4.4-.97-1.55-2-3.04-3.11-4.49-.01-.02-.02-.03-.03-.05-1.18-1.55-2.45-3.05-3.78-4.48-.11-.12-.22-.24-.33-.35-1.37-1.45-2.8-2.82-4.3-4.12-.25-.21-.49-.42-.74-.63-1.53-1.29-3.13-2.5-4.79-3.63-.42-.29-.85-.57-1.28-.84-1.69-1.09-3.43-2.1-5.23-3.02-.63-.32-1.27-.64-1.92-.94-1.81-.85-3.67-1.61-5.58-2.28-.87-.31-1.74-.59-2.63-.85-1.9-.57-3.84-1.05-5.8-1.44-1.1-.21-2.21-.4-3.34-.56-1.93-.26-3.9-.44-5.88-.53-.84-.03-1.69-.05-2.53-.05-.77,0-1.54.01-2.3.04-2.3.08-3.69,2.55-2.54,4.52l11.6,19.86c2.33.43,4.61,1.1,6.81,1.98.16.07.32.13.48.2,1.87.78,3.66,1.71,5.35,2.78,1.66,1.05,3.23,2.22,4.7,3.53.23.2.45.4.68.61.26.25.52.49.77.74,3.32,3.29,5.93,7.11,7.75,11.36,1.88,4.39,2.83,9.06,2.83,13.89s-.95,9.51-2.83,13.89c-1.76,4.11-4.26,7.83-7.44,11.04-.11.11-.21.21-.32.32-3.32,3.28-7.19,5.86-11.5,7.66-2.35.98-4.79,1.71-7.3,2.17l-12.06,20.63c-.93,1.6.17,3.62,2.03,3.72,1.08.06,2.16.08,3.25.08,20.39,0,38.41-10.01,49.31-25.32.74-1.04,1.45-2.11,2.13-3.2.94-1.52,1.81-3.07,2.61-4.68.73-1.48,1.41-2.98,2.03-4.52.57-1.43,1.08-2.88,1.54-4.36.43-1.38.81-2.79,1.14-4.21.31-1.34.57-2.7.79-4.08.2-1.31.37-2.64.48-3.98.11-1.29.18-2.6.21-3.9,0-.43.01-.86.01-1.29,0-.87-.02-1.73-.05-2.59v.03ZM60.25,95.24c-.24,0-.49,0-.74,0l-14.2,18.28c-1.14,1.48-.37,3.64,1.47,4.05.03,0,.05.01.08.02.98.22,2.01-.16,2.62-.94l16.41-21.82c-2.05.35-3.52.42-5.64.42h0ZM51.71,94.24l-16.03,15.84c-1.29,1.27-.87,3.44.8,4.16.02,0,.03.01.05.02.97.42,2.11.2,2.86-.54l18.76-18.54c-2.19-.12-4.34-.43-6.45-.94h0ZM46.19,92.44c-.71-.3-1.41-.62-2.09-.96l-17.56,13.31c-1.4,1.07-1.34,3.17.12,4.15.01.01.03.02.05.03.93.61,2.15.58,3.03-.09l20.01-15.17c-1.21-.36-2.39-.78-3.56-1.27h0ZM37.15,87l-18.81,10.73c-1.47.84-1.74,2.84-.53,4.03.01.01.03.03.04.04.83.81,2.11.97,3.13.4l20.89-11.92c-1.65-.97-3.22-2.06-4.7-3.29h0ZM34.69,84.78c-1.22-1.2-2.34-2.48-3.36-3.82l-19.83,8.11c-1.51.62-2.07,2.46-1.15,3.8,0,.01.02.03.03.05.68,1,2,1.39,3.13.92l21.47-8.79c-.1-.09-.2-.18-.29-.29ZM27.04,73.67l-20.63,5.46c-1.52.4-2.32,2.04-1.71,3.47,0,.01.01.03.02.05.5,1.18,1.8,1.79,3.06,1.47l21.75-5.76c-.94-1.5-1.77-3.06-2.48-4.69h0ZM24.6,65.5l-21.22,2.76c-1.48.19-2.5,1.58-2.2,3.03,0,.02,0,.03.01.05.27,1.32,1.53,2.21,2.88,2.04l21.78-2.83c-.54-1.65-.95-3.34-1.24-5.05h-.01Z"/><path class="cls-1" d="M446.09,19.66c-10.65-11.25-24.03-17.24-39.75-17.81-16.07-.55-30.1,5.1-41.69,16.78-11.58,11.48-17.43,25.46-17.4,41.54.03,15.52,5.47,29.02,16.18,40.14,10.78,11.2,24.16,17.06,39.74,17.42.72.03,1.43.04,2.14.04,15.12,0,28.41-5.59,39.54-16.62,11.7-11.6,17.62-25.52,17.59-41.36-.03-15.38-5.53-28.89-16.36-40.13ZM443.85,58.74c.2,11.33-3.61,20.9-11.67,29.24l-.02.02c-7.83,8.3-17.21,12.07-28.68,11.56-10.62-.34-19.37-4.39-26.76-12.38-7.25-7.84-10.85-17.29-10.67-28.12.16-10.96,3.97-19.98,11.65-27.59,7.74-7.68,16.64-11.42,27.2-11.42h.72c10.44,0,19.1,3.69,26.46,11.29,7.55,7.8,11.4,16.77,11.78,27.4Z"/><path class="cls-1" d="M199.67,3.16c-1.05-.5-2.19-.77-3.37-.83l-2.06-.13c-1.32-.08-2.52-.12-3.6-.12-14.22.03-26.26,4.92-35.76,14.54-9.43,9.54-14.2,21.63-14.17,35.91l.11,55.96v.55c.06,3.57,2.17,6.73,5.52,8.22,1.24.55,2.55.83,3.87.83,1.12,0,2.24-.2,3.32-.6,2.35-.87,4.22-2.6,5.25-4.87.61-1.34.84-2.48.82-4.16l-.11-57.46c-.01-8.48,2.99-15.6,9.19-21.76,6.12-6.06,13.51-9.15,21.99-9.16.83,0,1.66.03,2.67.12l2.17.18c3.66.16,7.08-1.82,8.66-5.29,2.06-4.5.08-9.74-4.51-11.92h.01Z"/><path class="cls-1" d="M272.44,2.06c-16.06-.58-30.11,5.04-41.72,16.7-11.6,11.46-17.47,25.42-17.47,41.51s5.42,29.03,16.11,40.16c10.76,11.22,24.13,17.1,39.7,17.49,15.48.57,29.13-4.63,40.57-15.41v14.99c.11,10.97-3.52,19.64-11.76,28.15-7.85,8.28-17.22,12.07-28.7,11.51-10.62-.36-19.36-4.42-26.74-12.42-1.87-2.03-3.3-3.81-4.45-5.51-.99-1.62-2.43-2.89-4.17-3.66-4.73-2.11-10.31-.03-12.44,4.64-1.45,3.17-.99,6.82,1.18,9.56,1.95,2.85,4.16,5.58,6.57,8.09,10.77,11.22,24.13,17.1,39.71,17.49.75.03,1.5.04,2.25.04,15.07,0,28.34-5.56,39.46-16.55,11.26-11.13,17.2-24.39,17.65-39.43l.2-58.02v-.45c.02-.28.03-.57.03-.86,0-15.38-5.48-28.9-16.28-40.15-10.63-11.27-24-17.29-39.71-17.88h0ZM309.84,59c.18,11.33-3.65,20.89-11.72,29.22v.02c-7.86,8.28-17.24,12.06-28.71,11.51-10.6-.35-19.35-4.42-26.73-12.42-7.24-7.84-10.81-17.31-10.63-28.13.18-10.95,4.01-19.97,11.7-27.57,7.74-7.65,16.62-11.37,27.15-11.37h.73c10.48,0,19.15,3.71,26.51,11.33,7.54,7.81,11.38,16.79,11.73,27.42h-.01Z"/></g></svg>